<?xml version="1.0" encoding="UTF-8"?>
<svg width="105px" height="128px" viewBox="0 0 105 128" version="1.1" xmlns="http://www.w3.org/2000/svg" xmlns:xlink="http://www.w3.org/1999/xlink">
    <!-- Generator: Sketch 54.1 (76490) - https://sketchapp.com -->
    <title>logo_128x128</title>
    <desc>Created with Sketch.</desc>
    <g id="Logo" stroke="none" stroke-width="1" fill="none" fill-rule="evenodd">
        <g id="logo_128x128" transform="translate(-6.000000, 0.000000)">
            <rect id="Rectangle" fill="#FFFFFF" opacity="0" x="0" y="0" width="128" height="128"></rect>
            <path d="M64.9977574,4.12114787e-13 L70.4189093,4.12114787e-13 L61,9.25028435 L61,3.92618624 L64.9977574,4.12114787e-13 Z M74.5810907,4.12114787e-13 L80.0022426,4.12114787e-13 L61,18.662049 L61,13.337951 L74.5810907,4.12114787e-13 Z M84,0.161480353 L84,5.48557847 L61,28.0738137 L61,22.7497157 L84,0.161480353 Z M84,9.57324508 L84,14.8973432 L61,37.4855784 L61,32.1614804 L84,9.57324508 Z M84,18.9850098 L84,24.3091079 L61,46.8973432 L61,41.5732451 L84,18.9850098 Z M84,28.3967745 L84,33.7208726 L61,56.3091079 L61,50.9850098 L84,28.3967745 Z M84,37.8085392 L84,43.1326373 L61,65.7208726 L61,60.3967745 L84,37.8085392 Z M84,47.2203039 L84,52.544402 L61,75.1326373 L61,69.8085392 L84,47.2203039 Z M84,56.6320686 L84,61.9561667 L61,84.544402 L61,79.2203039 L84,56.6320686 Z M84,66.0438333 L84,71.3679314 L62.8344547,92.154554 L61,90.3529412 L61,88.6320686 L84,66.0438333 Z M84,75.455598 L84,80.7796961 L67.6261214,96.8604367 L64.9155453,94.1983868 L84,75.455598 Z M84,84.8673627 L84,90.1914608 L72.417788,101.566319 L69.707212,98.9042692 L84,84.8673627 Z" id="Combined-Shape" fill="#909EA9" fill-rule="nonzero"></path>
            <path d="M111,91 C111,111.791896 93.7918965,128 73,128 C52.2081035,128 35.1764706,111.791896 35.1764706,91 L50.2352941,91 C50.2352941,103.475138 60.5248621,113 73,113 C85.4751379,113 95.4117647,103.475138 95.4117647,91 L95.4117647,30.1176471 L58,30.1176471 L58,15 L111,15 L111,91 Z" id="Combined-Shape-Copy-14" fill="#007FFF" fill-rule="nonzero"></path>
            <path d="M50,57 L54,57 L54,68 L50,68 L50,83 L35,83 L35,68 L6,68 L6,57 L35.1764706,15 L50,15 L50,57 Z M35,31 L18.2352941,57 L35,57 L35,31 Z" id="4-copy-13" fill="#0F2434" fill-rule="nonzero"></path>
        </g>
    </g>
</svg>