<?xml version="1.0" encoding="UTF-8"?>
<svg width="128px" height="128px" viewBox="0 0 128 128" version="1.1" xmlns="http://www.w3.org/2000/svg" xmlns:xlink="http://www.w3.org/1999/xlink">
    <!-- Generator: Sketch 63.1 (92452) - https://sketch.com -->
    <title>Logo_128x128</title>
    <desc>Created with Sketch.</desc>
    <g id="Logo_128x128" stroke="none" stroke-width="1" fill="none" fill-rule="evenodd">
        <path d="M111.725089,45.9600314 L111.816989,46.0492646 L126.750322,60.982598 C128.386264,62.6185397 128.416008,65.2524446 126.839555,66.9246759 L126.750322,67.0165758 L111.816989,81.9499091 L111.725089,82.0391423 C110.052858,83.6155953 107.418953,83.5858509 105.783011,81.9499091 C104.147069,80.3139674 104.117325,77.6800625 105.693778,76.0078312 L105.783011,75.9159313 L117.698987,63.9995869 L105.783011,52.0832425 C104.116774,50.4170055 104.116774,47.7155016 105.783011,46.0492646 C107.418953,44.4133229 110.052858,44.3835785 111.725089,45.9600314 Z" id="Path" fill="#0070FF" fill-rule="nonzero"></path>
        <path d="M16.274911,45.9600314 C17.9471423,44.3835785 20.5810472,44.4133229 22.2169889,46.0492646 C23.8529307,47.6852064 23.8826751,50.3191112 22.3062221,51.9913426 L22.2169889,52.0832425 L10.3010133,63.9995869 L22.2169889,75.9159313 C23.8832259,77.5821683 23.8832259,80.2836722 22.2169889,81.9499091 C20.5810472,83.5858509 17.9471423,83.6155953 16.274911,82.0391423 L16.1830111,81.9499091 L1.24967773,67.0165758 C-0.416559245,65.3503388 -0.416559245,62.6488349 1.24967773,60.982598 L16.1830111,46.0492646 L16.274911,45.9600314 Z" id="Path" fill="#0070FF" fill-rule="nonzero"></path>
        <path d="M46.0496777,75.9159313 C47.6856195,74.2799895 50.3195244,74.2502451 51.9917557,75.8266981 L52.0836556,75.9159313 L81.9503223,105.782598 C83.586264,107.41854 83.6160084,110.052445 82.0395555,111.724676 L81.9503223,111.816576 L67.0169889,126.749909 C66.2293133,127.537585 65.2102854,127.952905 64.1786383,127.995869 L64.0595585,127.999174 L63.9404415,127.999174 C62.9150522,127.984948 61.8938133,127.603332 61.0910977,126.854324 L60.9830111,126.749909 L46.0496777,111.816576 L45.9604445,111.724676 C44.3839916,110.052445 44.413736,107.41854 46.0496777,105.782598 C47.6856195,104.146656 50.3195244,104.116912 51.9917557,105.693365 L52.0836556,105.782598 L64,117.69856 L72.8989867,108.799573 L46.0496777,81.9499091 L45.9604445,81.8580092 C44.3839916,80.1857779 44.413736,77.551873 46.0496777,75.9159313 Z M46.0496777,46.0492646 C47.6856195,44.4133229 50.3195244,44.3835785 51.9917557,45.9600314 L52.0836556,46.0492646 L81.9503223,75.9159313 L82.0395555,76.0078312 C83.6160084,77.6800625 83.586264,80.3139674 81.9503223,81.9499091 C80.3143805,83.5858509 77.6804756,83.6155953 76.0082443,82.0391423 L75.9163444,81.9499091 L46.0496777,52.0832425 L45.9604445,51.9913426 C44.3839916,50.3191112 44.413736,47.6852064 46.0496777,46.0492646 Z M64.0595585,0 C65.0849478,0.0142255805 66.1061867,0.395842241 66.9089023,1.14484998 L67.0169889,1.24926462 L81.9503223,16.182598 L82.0395555,16.2744979 C83.6160084,17.9467292 83.586264,20.5806341 81.9503223,22.2165758 C80.3143805,23.8525176 77.6804756,23.882262 76.0082443,22.305809 L75.9163444,22.2165758 L64,10.3005867 L55.1010133,19.1995733 L81.9503223,46.0492646 L82.0395555,46.1411645 C83.6160084,47.8133959 83.586264,50.4473007 81.9503223,52.0832425 C80.3143805,53.7191842 77.6804756,53.7489286 76.0082443,52.1724757 L75.9163444,52.0832425 L46.0496777,22.2165758 L45.9604445,22.1246759 C44.4131852,20.4834118 44.4131852,17.915762 45.9604445,16.2744979 L46.0496777,16.182598 L60.9830111,1.24926462 C61.8009819,0.431293737 62.8684436,0.0148721978 63.9404415,0 L64.0595585,0 Z" id="Shape" fill="#1B191B" fill-rule="nonzero"></path>
    </g>
</svg>